<?xml version="1.0" encoding="UTF-8"?><svg id="Layer_1" xmlns="http://www.w3.org/2000/svg" viewBox="0 0 198.56 197.72"><defs><style>.cls-1{fill:#1c1c1b;}.cls-1,.cls-2,.cls-3,.cls-4{stroke-width:0px;}.cls-2{fill:#9f358b;}.cls-3{fill:#f00023;}.cls-4{fill:#004f9f;}</style></defs><path class="cls-2" d="m110.69,46.77c6.39,8.2,14.69,21.34,19.29,38.76,4.73,17.94,4.12,32.3,2.67,41.74,2.04-.41,3.75-.83,5.07-1.18,3.83-1.02,7.12-2.89,9.78-5.55,2.45-2.45,4.29-5.46,5.63-8.75-1.94-12.14-4.82-23.95-6.64-30.82-1.85-6.97-5.24-18.9-9.69-30.63-1.61-4.22-3.34-8.41-5.2-12.34-3.36-7.11-7.1-13.36-11.09-17.35-.36-.36-.73-.72-1.09-1.07-2.45-2.34-5.03-4.47-7.71-6.4l-.85-.6C83.36-6.55,45.16-3.86,20.65,20.65-3.89,45.2-6.56,83.46,12.65,110.99c.25-1.15.52-2.3.83-3.45,2.37-8.82,9.56-19.6,17.72-29.7,2.39-12.97,11.02-25.35,16.16-30.49,5.61-5.61,18.01-14.21,30.91-16.41,4.41-.75,8.86-.75,13.14.37,4.15,1.09,8.12,3.23,11.67,6.78.49.49,1.12,1.13,1.85,1.92,1.53,1.62,3.52,3.89,5.75,6.74"/><path class="cls-4" d="m127.49,132.31c-10.3,1.44-25.83,2.06-43.21-2.67-17.9-4.87-30.04-12.59-37.48-18.56-.67,1.97-1.16,3.66-1.51,4.99-1.03,3.83-1.06,7.61-.08,11.24.9,3.35,2.58,6.44,4.76,9.25,11.48,4.4,23.15,7.8,30,9.66,6.97,1.9,18.98,4.92,31.37,6.93,4.45.72,8.95,1.31,13.29,1.67,7.83.65,15.11.54,20.56-.92.49-.13.98-.27,1.47-.41,3.25-.95,6.39-2.11,9.4-3.48l.95-.43c30.32-14.27,47.08-48.7,38.11-82.18-8.98-33.53-40.79-54.97-74.23-52.1.87.79,1.72,1.6,2.56,2.44,6.46,6.46,12.2,18.08,16.86,30.19,10.03,8.55,16.44,22.22,18.32,29.24,2.06,7.66,3.3,22.7-1.25,34.98-1.55,4.19-3.78,8.05-6.88,11.19-3.02,3.05-6.86,5.42-11.72,6.72-.67.18-1.54.41-2.59.65-2.17.5-5.13,1.1-8.71,1.6"/><path class="cls-3" d="m44.99,104.08c3.91-9.63,11.13-23.4,23.92-36.09,13.17-13.07,25.92-19.72,34.81-23.18-1.37-1.56-2.59-2.83-3.56-3.8-2.81-2.81-6.07-4.72-9.7-5.69-3.35-.9-6.87-.98-10.4-.5-9.54,7.75-18.32,16.15-23.36,21.16-5.13,5.09-13.76,13.98-21.68,23.71-2.86,3.5-5.62,7.1-8.09,10.67-4.48,6.46-8.03,12.83-9.48,18.27-.14.49-.26.99-.38,1.48-.81,3.29-1.36,6.59-1.69,9.87-.04.35-.07.69-.1,1.04-2.8,33.39,18.63,65.12,52.11,74.09,33.53,8.98,68-7.84,82.23-38.24-1.12.35-2.24.69-3.39,1-8.82,2.36-21.75,1.52-34.58-.49-12.42,4.41-27.47,3.12-34.49,1.25-7.66-2.06-21.32-8.49-29.67-18.56-2.86-3.44-5.09-7.31-6.26-11.57-1.12-4.14-1.25-8.65.04-13.5.18-.67.42-1.54.73-2.57.65-2.13,1.61-4.99,2.97-8.35"/><path class="cls-1" d="m189.78,197.72c-4.81,0-8.73-3.99-8.73-8.9s3.92-8.9,8.73-8.9,8.78,3.99,8.78,8.9-3.94,8.9-8.78,8.9Zm0-16.52c-1.99,0-3.85.8-5.22,2.26-1.35,1.43-2.09,3.34-2.09,5.35s.74,3.92,2.09,5.35c1.37,1.46,3.22,2.26,5.22,2.26,4.05,0,7.35-3.42,7.35-7.62s-3.3-7.62-7.35-7.62Zm4.67,12.98h-1.74l-2.91-4.79h-2.17v4.79h-1.28v-10.53h4.01c2.26,0,3.36.93,3.36,2.86s-1.22,2.59-2.38,2.83l3.11,4.84Zm-6.82-6.03h1.79c1.71,0,2.92-.12,2.92-1.67,0-1.08-.74-1.6-2.27-1.6h-2.44v3.27Z"/></svg>