<?xml version="1.0" encoding="UTF-8" standalone="no"?>
<!-- Uploaded to: SVG Repo, www.svgrepo.com, Generator: SVG Repo Mixer Tools -->

<svg
   height="492"
   width="431"
   version="1.1"
   id="Layer_1"
   viewBox="0 0 255.18117 291.29744"
   xml:space="preserve"
   sodipodi:docname="dwg.svg"
   inkscape:version="1.4 (86a8ad7, 2024-10-11)"
   xmlns:inkscape="http://www.inkscape.org/namespaces/inkscape"
   xmlns:sodipodi="http://sodipodi.sourceforge.net/DTD/sodipodi-0.dtd"
   xmlns="http://www.w3.org/2000/svg"
   xmlns:svg="http://www.w3.org/2000/svg"><defs
   id="defs6" /><sodipodi:namedview
   id="namedview6"
   pagecolor="#ffffff"
   bordercolor="#000000"
   borderopacity="0.25"
   inkscape:showpageshadow="2"
   inkscape:pageopacity="0.0"
   inkscape:pagecheckerboard="0"
   inkscape:deskcolor="#d1d1d1"
   inkscape:zoom="0.71329397"
   inkscape:cx="302.11948"
   inkscape:cy="171.73845"
   inkscape:window-width="2560"
   inkscape:window-height="1009"
   inkscape:window-x="-8"
   inkscape:window-y="-8"
   inkscape:window-maximized="1"
   inkscape:current-layer="Layer_1" />

<path
   style="fill:#f7b52e"
   d="m 53.834879,2.011809 c -8.818,0 -15.972,7.154 -15.972,15.975 V 273.59081 c 0,8.822 7.154,15.972 15.972,15.972 H 237.55288 c 8.822,0 15.972,-7.15 15.972,-15.972 V 75.991809 l -77.002,-73.98 z"
   id="path1" />
<g
   id="g3"
   transform="translate(-90.475121,-91.720191)">
	<path
   style="fill:#de9d27"
   d="m 344.003,167.716 h -61.03 c -8.822,0 -15.972,-7.15 -15.972,-15.972 V 93.732 Z"
   id="path2" />
	<path
   style="fill:#de9d27"
   d="m 263.812,271.613 c 0,10.183 -8.253,18.436 -18.432,18.436 H 110.811 c -10.183,0 -18.432,-8.253 -18.432,-18.436 v -56.318 c 0,-10.183 8.25,-18.432 18.432,-18.432 H 245.38 c 10.179,0 18.432,8.25 18.432,18.432 z"
   id="path3" />
</g>
<g
   id="g6"
   transform="translate(-90.475121,-91.720191)">
	<path
   style="fill:#ffffff"
   d="m 120.635,226.641 h 9.895 c 2.573,0 4.779,0.239 6.623,0.714 1.844,0.475 3.508,1.372 5.011,2.685 3.904,3.339 5.852,8.418 5.852,15.235 0,2.251 -0.198,4.304 -0.587,6.159 -0.389,1.855 -0.998,3.53 -1.814,5.022 -0.815,1.492 -1.866,2.823 -3.145,4.001 -1.006,0.905 -2.105,1.627 -3.298,2.173 -1.193,0.546 -2.476,0.931 -3.848,1.152 -1.369,0.221 -2.917,0.333 -4.637,0.333 h -9.899 c -1.38,0 -2.42,-0.209 -3.119,-0.625 -0.699,-0.416 -1.156,-1.006 -1.369,-1.765 -0.213,-0.759 -0.318,-1.743 -0.318,-2.954 v -27.478 c 0,-1.638 0.366,-2.82 1.099,-3.553 0.734,-0.733 1.92,-1.099 3.554,-1.099 z m 2.939,6.005 v 25.437 h 5.751 c 1.26,0 2.251,-0.034 2.965,-0.101 0.714,-0.067 1.458,-0.239 2.225,-0.512 0.767,-0.273 1.432,-0.654 1.993,-1.152 2.539,-2.147 3.811,-5.845 3.811,-11.095 0,-3.698 -0.557,-6.466 -1.675,-8.309 -1.114,-1.84 -2.491,-3.014 -4.128,-3.515 -1.638,-0.501 -3.612,-0.755 -5.931,-0.755 h -5.011 z"
   id="path4" />
	<path
   style="fill:#ffffff"
   d="m 182.525,258.21 -6.058,-22.471 -6.137,22.471 c -0.479,1.705 -0.856,2.928 -1.137,3.669 -0.284,0.74 -0.774,1.406 -1.473,1.993 -0.699,0.587 -1.63,0.883 -2.786,0.883 -0.939,0 -1.709,-0.176 -2.315,-0.524 -0.602,-0.348 -1.092,-0.845 -1.47,-1.481 -0.378,-0.636 -0.684,-1.399 -0.92,-2.274 -0.236,-0.875 -0.452,-1.69 -0.639,-2.442 l -6.238,-25.231 c -0.378,-1.466 -0.561,-2.58 -0.561,-3.351 0,-0.972 0.34,-1.791 1.021,-2.453 0.681,-0.662 1.526,-0.998 2.532,-0.998 1.38,0 2.307,0.445 2.786,1.328 0.479,0.883 0.894,2.173 1.253,3.859 l 4.91,21.884 5.497,-20.478 c 0.408,-1.567 0.774,-2.76 1.099,-3.579 0.325,-0.819 0.853,-1.526 1.586,-2.12 0.733,-0.594 1.731,-0.894 2.992,-0.894 1.279,0 2.27,0.31 2.977,0.935 0.707,0.625 1.197,1.301 1.473,2.031 0.277,0.729 0.639,1.945 1.099,3.631 l 5.546,20.478 4.91,-21.884 c 0.236,-1.141 0.464,-2.034 0.677,-2.685 0.217,-0.647 0.58,-1.227 1.103,-1.739 0.52,-0.512 1.271,-0.767 2.259,-0.767 0.987,0 1.829,0.329 2.517,0.984 0.696,0.654 1.036,1.481 1.036,2.468 0,0.699 -0.187,1.814 -0.561,3.351 l -6.241,25.227 c -0.426,1.705 -0.782,2.954 -1.058,3.743 -0.284,0.793 -0.759,1.485 -1.432,2.083 -0.677,0.598 -1.627,0.894 -2.853,0.894 -1.159,0 -2.09,-0.292 -2.786,-0.868 -0.696,-0.576 -1.182,-1.23 -1.458,-1.956 -0.279,-0.725 -0.657,-1.963 -1.15,-3.717 z"
   id="path5" />
	<path
   style="fill:#ffffff"
   d="m 239.325,248.88 v 7.184 c 0,0.954 -0.093,1.716 -0.28,2.289 -0.187,0.572 -0.535,1.088 -1.032,1.548 -0.505,0.46 -1.148,0.905 -1.933,1.328 -2.266,1.227 -4.446,2.12 -6.544,2.685 -2.098,0.565 -4.379,0.845 -6.851,0.845 -2.883,0 -5.505,-0.445 -7.872,-1.328 -2.367,-0.883 -4.39,-2.173 -6.058,-3.859 -1.668,-1.687 -2.951,-3.732 -3.848,-6.137 -0.89,-2.405 -1.339,-5.086 -1.339,-8.051 0,-2.913 0.434,-5.583 1.305,-8.003 0.871,-2.42 2.147,-4.473 3.833,-6.159 1.686,-1.686 3.74,-2.977 6.159,-3.874 2.42,-0.898 5.164,-1.343 8.231,-1.343 2.524,0 4.753,0.337 6.698,1.01 1.945,0.673 3.519,1.522 4.731,2.543 1.212,1.021 2.12,2.105 2.734,3.246 0.613,1.141 0.92,2.158 0.92,3.04 0,0.954 -0.355,1.769 -1.062,2.442 -0.703,0.673 -1.552,1.01 -2.543,1.01 -0.546,0 -1.07,-0.127 -1.571,-0.385 -0.505,-0.254 -0.927,-0.613 -1.268,-1.073 -0.939,-1.466 -1.731,-2.573 -2.378,-3.324 -0.647,-0.752 -1.518,-1.38 -2.621,-1.892 -1.096,-0.512 -2.498,-0.767 -4.203,-0.767 -1.758,0 -3.324,0.303 -4.704,0.909 -1.38,0.606 -2.562,1.481 -3.538,2.633 -0.984,1.152 -1.731,2.562 -2.251,4.229 -0.524,1.672 -0.782,3.519 -0.782,5.546 0,4.398 1.01,7.782 3.033,10.149 2.016,2.367 4.835,3.553 8.448,3.553 1.758,0 3.403,-0.232 4.947,-0.692 1.541,-0.46 3.104,-1.114 4.689,-1.967 v -6.084 h -5.879 c -1.414,0 -2.483,-0.213 -3.205,-0.639 -0.725,-0.426 -1.088,-1.152 -1.088,-2.173 0,-0.834 0.303,-1.526 0.905,-2.072 0.606,-0.546 1.429,-0.819 2.468,-0.819 h 8.616 c 1.055,0 1.948,0.093 2.685,0.28 0.737,0.187 1.324,0.606 1.776,1.253 0.448,0.653 0.672,1.625 0.672,2.919 z"
   id="path6" />
</g>
</svg>
