<?xml version="1.0" encoding="UTF-8" standalone="no"?>
<!-- Uploaded to: SVG Repo, www.svgrepo.com, Generator: SVG Repo Mixer Tools -->

<svg
   height="493"
   width="434"
   version="1.1"
   id="Layer_1"
   viewBox="0 0 256.95723 291.88939"
   xml:space="preserve"
   sodipodi:docname="dxf-svgrepo-com.svg"
   inkscape:version="1.4 (86a8ad7, 2024-10-11)"
   xmlns:inkscape="http://www.inkscape.org/namespaces/inkscape"
   xmlns:sodipodi="http://sodipodi.sourceforge.net/DTD/sodipodi-0.dtd"
   xmlns="http://www.w3.org/2000/svg"
   xmlns:svg="http://www.w3.org/2000/svg"><defs
   id="defs6" /><sodipodi:namedview
   id="namedview6"
   pagecolor="#ffffff"
   bordercolor="#000000"
   borderopacity="0.25"
   inkscape:showpageshadow="2"
   inkscape:pageopacity="0.0"
   inkscape:pagecheckerboard="0"
   inkscape:deskcolor="#d1d1d1"
   inkscape:zoom="0.71329397"
   inkscape:cx="299.31558"
   inkscape:cy="163.32677"
   inkscape:window-width="2560"
   inkscape:window-height="1009"
   inkscape:window-x="-8"
   inkscape:window-y="-8"
   inkscape:window-maximized="1"
   inkscape:current-layer="Layer_1" />

<path
   style="fill:#d42f3b"
   d="m 55.07995,2.4268325 c -8.814,0 -15.972,7.1539996 -15.972,15.9749995 V 274.00584 c 0,8.822 7.158,15.972 15.972,15.972 h 183.722 c 8.822,0 15.972,-7.15 15.972,-15.972 V 76.406832 l -77.005,-73.9799995 z"
   id="path1" />
<g
   id="g3"
   transform="translate(-89.23005,-91.305168)">
	<path
   style="fill:#bc2b3b"
   d="m 344.003,167.716 h -61.03 c -8.822,0 -15.972,-7.15 -15.972,-15.972 V 93.732 Z"
   id="path2" />
	<path
   style="fill:#bc2b3b"
   d="m 263.816,271.613 c 0,10.183 -8.253,18.436 -18.436,18.436 H 110.815 c -10.183,0 -18.436,-8.253 -18.436,-18.436 v -56.318 c 0,-10.183 8.253,-18.432 18.436,-18.432 H 245.38 c 10.183,0 18.436,8.25 18.436,18.432 z"
   id="path3" />
</g>
<g
   id="g6"
   transform="translate(-89.23005,-91.305168)">
	<path
   style="fill:#ffffff"
   d="m 134.95,226.641 h 9.895 c 2.573,0 4.779,0.239 6.623,0.714 1.844,0.475 3.508,1.372 5.011,2.685 3.904,3.339 5.852,8.418 5.852,15.235 0,2.251 -0.198,4.304 -0.587,6.159 -0.389,1.855 -0.998,3.53 -1.814,5.022 -0.816,1.492 -1.866,2.823 -3.145,4.001 -1.006,0.905 -2.105,1.627 -3.298,2.173 -1.193,0.546 -2.476,0.931 -3.848,1.152 -1.369,0.221 -2.917,0.333 -4.637,0.333 h -9.895 c -1.38,0 -2.42,-0.209 -3.119,-0.625 -0.699,-0.415 -1.156,-1.006 -1.369,-1.765 -0.213,-0.759 -0.318,-1.743 -0.318,-2.954 v -27.478 c 0,-1.638 0.366,-2.82 1.099,-3.553 0.734,-0.733 1.912,-1.099 3.55,-1.099 z m 2.939,6.005 v 25.437 h 5.751 c 1.26,0 2.251,-0.034 2.965,-0.101 0.714,-0.067 1.458,-0.239 2.225,-0.512 0.767,-0.273 1.432,-0.654 1.993,-1.152 2.539,-2.147 3.811,-5.845 3.811,-11.095 0,-3.698 -0.557,-6.466 -1.675,-8.309 -1.114,-1.84 -2.491,-3.014 -4.128,-3.515 -1.638,-0.501 -3.612,-0.755 -5.931,-0.755 h -5.011 z"
   id="path4" />
	<path
   style="fill:#ffffff"
   d="m 167.619,256.83 8.384,-12.243 -7.057,-10.89 c -0.666,-1.058 -1.167,-1.963 -1.492,-2.722 -0.337,-0.759 -0.501,-1.485 -0.501,-2.184 0,-0.714 0.318,-1.357 0.961,-1.93 0.636,-0.572 1.417,-0.856 2.337,-0.856 1.055,0 1.877,0.31 2.468,0.935 0.583,0.625 1.399,1.776 2.438,3.463 l 5.624,9.102 6.006,-9.102 c 0.494,-0.767 0.916,-1.421 1.268,-1.967 0.348,-0.546 0.684,-0.998 1.01,-1.354 0.325,-0.355 0.688,-0.624 1.088,-0.804 0.396,-0.179 0.86,-0.269 1.391,-0.269 0.954,0 1.735,0.284 2.341,0.856 0.602,0.572 0.905,1.249 0.905,2.031 0,1.141 -0.658,2.692 -1.967,4.652 l -7.389,11.043 7.95,12.243 c 0.714,1.073 1.234,1.963 1.559,2.67 0.325,0.707 0.486,1.376 0.486,2.008 0,0.598 -0.146,1.141 -0.434,1.638 -0.288,0.497 -0.699,0.886 -1.227,1.174 -0.527,0.288 -1.126,0.434 -1.791,0.434 -0.714,0 -1.324,-0.15 -1.814,-0.449 -0.49,-0.299 -0.894,-0.669 -1.2,-1.111 -0.307,-0.441 -0.875,-1.305 -1.713,-2.58 l -6.597,-10.377 -7.004,10.684 c -0.546,0.853 -0.931,1.447 -1.167,1.791 -0.228,0.34 -0.505,0.673 -0.83,0.998 -0.325,0.325 -0.707,0.58 -1.152,0.767 -0.445,0.187 -0.965,0.28 -1.559,0.28 -0.92,0 -1.683,-0.28 -2.289,-0.845 -0.602,-0.561 -0.905,-1.38 -0.905,-2.453 0.006,-1.267 0.627,-2.808 1.872,-4.633 z"
   id="path5" />
	<path
   style="fill:#ffffff"
   d="m 223.017,232.493 h -14.955 v 9.585 h 12.501 c 1.159,0 2.023,0.258 2.592,0.778 0.572,0.52 0.856,1.215 0.856,2.083 0,0.868 -0.288,1.559 -0.868,2.072 -0.58,0.512 -1.44,0.767 -2.58,0.767 h -12.501 v 12.348 c 0,1.567 -0.355,2.73 -1.062,3.489 -0.703,0.759 -1.615,1.137 -2.722,1.137 -1.126,0 -2.042,-0.385 -2.749,-1.152 -0.703,-0.767 -1.058,-1.926 -1.058,-3.478 v -28.828 c 0,-1.092 0.161,-1.982 0.486,-2.67 0.325,-0.688 0.83,-1.193 1.522,-1.507 0.688,-0.314 1.571,-0.471 2.644,-0.471 h 17.894 c 1.208,0 2.109,0.269 2.696,0.804 0.591,0.538 0.883,1.242 0.883,2.109 0,0.886 -0.292,1.597 -0.883,2.135 -0.587,0.53 -1.488,0.799 -2.696,0.799 z"
   id="path6" />
</g>
</svg>
