<?xml version="1.0" encoding="UTF-8" standalone="no"?>
<svg
   version="1.1"
   width="1024"
   height="1024"
   id="svg24"
   sodipodi:docname="be4a2edb-bdba-4b27-8677-9da0b1e80f54.svg"
   inkscape:version="1.4 (86a8ad7, 2024-10-11)"
   xmlns:inkscape="http://www.inkscape.org/namespaces/inkscape"
   xmlns:sodipodi="http://sodipodi.sourceforge.net/DTD/sodipodi-0.dtd"
   xmlns="http://www.w3.org/2000/svg"
   xmlns:svg="http://www.w3.org/2000/svg">
  <defs
     id="defs24" />
  <sodipodi:namedview
     id="namedview24"
     pagecolor="#ffffff"
     bordercolor="#000000"
     borderopacity="0.25"
     inkscape:showpageshadow="2"
     inkscape:pageopacity="0.0"
     inkscape:pagecheckerboard="0"
     inkscape:deskcolor="#d1d1d1"
     inkscape:zoom="0.55726091"
     inkscape:cx="237.77013"
     inkscape:cy="557.18963"
     inkscape:window-width="2560"
     inkscape:window-height="1009"
     inkscape:window-x="-8"
     inkscape:window-y="-8"
     inkscape:window-maximized="1"
     inkscape:current-layer="svg24" />
  <path
     d="m 0,0 c 21.311556,-0.54909002 43.516562,7.3258427 59.175781,21.8125 2.177603,2.073165 4.313441,4.184625 6.4375,6.3125 0.561387,0.559775 1.122774,1.119551 1.701172,1.696289 4.569997,4.562216 4.569997,4.562216 6.63501,6.675537 2.580791,2.627125 5.208518,5.113514 8.023926,7.488281 5.653285,4.927315 10.885934,10.274769 16.16777,15.592606 1.915891,1.928805 3.835011,3.854333 5.754961,5.779099 4.76494,4.778212 9.52438,9.561886 14.28399,14.345397 4.03333,4.053144 8.06875,8.10417 12.10692,12.152482 1.87862,1.885037 3.75417,3.77309 5.6296,5.6613 5.13748,5.159279 10.26864,10.227099 15.81445,14.951659 3.89053,3.42576 7.48705,7.16229 11.1322,10.84485 0.85755,0.86134 1.7151,1.72267 2.59863,2.61011 3.63632,3.65253 7.26661,7.31103 10.89746,10.96899 2.66589,2.68405 5.33483,5.36503 8.00391,8.0459 0.80857,0.81686 1.61713,1.63373 2.4502,2.47534 4.13663,4.15428 8.35533,8.11272 12.79834,11.93555 3.76613,3.34303 7.27366,6.9479 10.81396,10.52661 1.21974,1.22542 1.21974,1.22542 2.46411,2.47559 3.44516,3.46136 6.88429,6.9287 10.32398,10.3955 2.52688,2.54506 5.05682,5.08704 7.58691,7.62891 0.76482,0.77312 1.52964,1.54623 2.31763,2.34277 4.1241,4.14265 8.33045,8.11023 12.77774,11.90512 19.30938,16.89138 34.14469,40.09737 36.59213,65.87711 1.04035,24.91633 -7.20113,45.25273 -23.875,63.625 -0.53738,0.59377 -1.07475,1.18755 -1.62842,1.79932 -8.71926,9.57572 -17.83168,18.75017 -27.05078,27.84326 -3.71872,3.68128 -7.38405,7.35108 -10.78955,11.32617 -5.2301,6.09974 -11.0754,11.61721 -16.79297,17.25391 -0.89332,0.88558 -1.78664,1.77117 -2.70703,2.68359 -1.19786,1.18046 -1.19786,1.18046 -2.41992,2.38477 -1.93494,2.00729 -3.7362,4.01505 -5.53711,6.13476 -5.12401,5.90045 -10.72751,11.3377 -16.26772,16.84288 -2.06321,2.05032 -4.12317,4.10386 -6.18235,6.15822 -5.11212,5.09883 -10.2297,10.19218 -15.34711,15.28571 -4.33498,4.31516 -8.66785,8.63243 -12.998,12.95243 -2.018,2.01157 -4.03901,4.02008 -6.06017,6.02846 -5.35443,5.33314 -10.65381,10.63997 -15.55194,16.40137 -6.37638,7.28763 -13.45317,14.00098 -20.279722,20.86804 -2.004526,2.01784 -4.001533,4.04269 -5.992187,6.07422 -2.434661,2.48459 -4.881946,4.95611 -7.338177,7.41937 -1.359987,1.36975 -2.70776,2.7516 -4.055042,4.13385 -13.927934,13.88163 -31.467098,22.14311 -51.251801,22.72217 -21.5706844,-0.40989 -38.6626786,-9.70421 -53.845215,-24.46338 -1.428542,-1.38679 -2.865123,-2.76532 -4.305664,-4.13965 -2.651906,-2.53422 -5.283727,-5.08787 -7.911621,-7.64697 -0.867539,-0.82919 -1.735078,-1.65838 -2.628906,-2.5127 -0.799219,-0.78858 -1.598438,-1.57716 -2.421875,-2.38964 -0.724856,-0.70504 -1.449712,-1.41008 -2.196533,-2.13648 -1.440186,-2.02368 -1.440186,-2.02368 -1.213944,-3.94612 0.890015,-2.38971 1.899749,-3.56046 3.7137,-5.34221 0.617994,-0.61454 1.235989,-1.22908 1.872711,-1.86224 0.67284,-0.65422 1.34568,-1.30844 2.03891,-1.98249 0.692257,-0.68564 1.384513,-1.37128 2.097748,-2.07769 2.218253,-2.19485 4.446373,-4.37933 6.675689,-6.56293 2.20621,-2.17095 4.410207,-4.34407 6.61142,-6.52008 1.369138,-1.35241 2.741361,-2.7017 4.117248,-4.04724 3.101722,-3.0542 6.088995,-6.14538 8.9202514,-9.4532 3.5328742,-4.059 7.2471946,-7.88807 11.0596838,-11.68334 0.7042684,-0.70512 1.4085368,-1.41024 2.1341467,-2.13673 2.3390339,-2.34067 4.6816018,-4.67777 7.0241941,-7.01488 1.685955,-1.68567 3.371689,-3.37156 5.05722,-5.05766 4.088633,-4.08889 8.179548,-8.17549 12.271496,-12.26106 4.764815,-4.75764 9.52678,-9.51813 14.288581,-14.27879 8.490682,-8.4885 16.983591,-16.97477 25.477917,-25.45962 8.247272,-8.23808 16.493483,-16.47722 24.738282,-24.71777 0.508937,-0.50868 1.017874,-1.01735 1.542234,-1.54144 2.553399,-2.55209 5.106775,-5.10421 7.660145,-7.65633 21.15418,-21.14383 42.31203,-42.284 63.47218,-63.42186 -4.02325,-4.82418 -8.23028,-9.37239 -12.68185,-13.80211 -0.64625,-0.6471 -1.29249,-1.2942 -1.95832,-1.9609 -2.14867,-2.15031 -4.30087,-4.29704 -6.45309,-6.44378 -1.54788,-1.54759 -3.09554,-3.09541 -4.64299,-4.64343 -4.18942,-4.18971 -8.38192,-8.37633 -12.57498,-12.56241 -4.38601,-4.37975 -8.76919,-8.76234 -13.15267,-13.14464 C 106.85363,217.27508 98.555324,208.98498 90.2561,200.6958 83.623404,194.07101 76.99193,187.445 70.361328,180.81812 69.893946,180.351 69.426564,179.88388 68.945019,179.4026 66.600127,177.05901 64.255256,174.71541 61.910393,172.37179 42.481185,152.95303 23.048411,133.53784 3.6132813,114.125 c -1.1173938,0.95173 -2.2339299,1.90447 -3.35010629,2.85762 -0.62186347,0.53045 -1.24372694,1.06089 -1.88443471,1.60741 -2.1969094,1.91009 -4.2687347,3.91832 -6.3238087,5.97979 -0.8203221,0.8204 -1.6406442,1.6408 -2.4858246,2.48606 -1.291044,1.29878 -1.291044,1.29878 -2.60817,2.62381 -0.900133,0.90155 -1.800266,1.80309 -2.727676,2.73196 -2.370708,2.37533 -4.739225,4.7528 -7.106674,7.13138 -2.425113,2.43542 -4.853127,4.86794 -7.280884,7.30072 -4.746793,4.75778 -9.490715,9.5184 -14.232422,14.28125 -4.722775,-3.94189 -9.185636,-8.04788 -13.514404,-12.41675 -0.609072,-0.61053 -1.218144,-1.22106 -1.845673,-1.8501 -1.309496,-1.31327 -2.617836,-2.6277 -3.925115,-3.94318 -2.070161,-2.08302 -4.143512,-4.16281 -6.217692,-6.24183 -4.397695,-4.40907 -8.791436,-8.82207 -13.184616,-13.23564 -5.103541,-5.12717 -10.208703,-10.2527 -15.318094,-15.37403 -2.040537,-2.04701 -4.078027,-4.09701 -6.115427,-6.14713 -1.25077,-1.25441 -2.50168,-2.508674 -3.75276,-3.762776 -0.56372,-0.568884 -1.12743,-1.137768 -1.70823,-1.723892 -2.66683,-2.667183 -5.3164,-5.15037 -8.41799,-7.304672 1.65562,-4.264158 4.84319,-7.131336 8.01929,-10.293945 0.6166,-0.621716 1.23321,-1.243432 1.8685,-1.883988 2.04136,-2.055268 4.09008,-4.103016 6.13955,-6.150192 1.42833,-1.432215 2.856433,-2.864652 4.284322,-4.297302 2.998583,-3.006049 6.001018,-6.008188 9.005966,-9.007874 3.827891,-3.822125 7.644363,-7.655425 11.45771,-11.492054 2.95036,-2.96519 5.907724,-5.92332 8.86706,-8.879551 1.408372,-1.408882 2.814417,-2.820095 4.217968,-4.23378 9.780079,-9.841943 19.449094,-18.955425 32.077135,-25.073814 1.017312,-0.498988 1.017312,-0.498988 2.055176,-1.0080566 C -20.6248,2.1682508 -10.714906,0.5611735 0,0 Z"
     fill="#ea0e61"
     transform="translate(643.38672,107.875)"
     id="path1"
     style="display:inline" />
  <path
     d="m 0,0 c 22.810262,-0.64953844 46.132736,5.8301988 63.082031,21.558594 1.368642,1.326125 2.736683,2.652907 4.096527,3.988052 1.911763,1.820393 3.891776,3.550224 5.874665,5.292954 6.635369,5.96209 12.89736,12.287699 19.184909,18.61243 2.210083,2.223016 4.423422,4.442743 6.63757,6.661709 4.696618,4.707959 9.389268,9.419858 14.081328,14.132355 5.44981,5.4735 10.90128,10.945321 16.35699,16.412929 2.1689,2.17533 4.33474,4.353674 6.50046,6.53217 1.3418,1.345435 2.68375,2.690728 4.02585,4.035858 0.88707,0.894816 0.88707,0.894816 1.79206,1.807709 3.62985,3.63031 7.39876,7.03519 11.28082,10.39335 2.8193,2.48748 5.47183,5.12156 8.11609,7.79259 0.84566,0.84786 0.84566,0.84786 1.70842,1.71285 1.20852,1.21229 2.41589,2.42574 3.62219,3.64026 1.91589,1.9288 3.83501,3.85433 5.75496,5.7791 4.76494,4.77821 9.52438,9.56188 14.28399,14.34539 4.03333,4.05315 8.06875,8.10417 12.10692,12.15248 1.87862,1.88504 3.75417,3.77309 5.6296,5.6613 5.73134,5.75576 11.50225,11.34687 17.69665,16.60901 20.54786,19.04452 37.98473,40.07549 39.375,69.29297 0.77273,28.06106 -8.92373,45.05813 -27.85596,65.12207 -4.42087,4.61272 -8.96592,9.10336 -13.51904,13.58496 -2.85857,-1.29787 -4.91301,-2.6656 -7.12262,-4.88884 -0.59134,-0.59003 -1.18268,-1.18007 -1.79194,-1.78799 -0.63696,-0.64571 -1.27391,-1.29143 -1.93017,-1.95671 -0.68023,-0.68155 -1.36047,-1.3631 -2.06132,-2.06531 -2.24949,-2.25598 -4.49191,-4.51885 -6.73457,-6.78162 -1.56645,-1.57271 -3.13341,-3.14492 -4.70087,-4.71662 -4.13084,-4.14416 -8.25609,-8.29383 -12.37976,-12.44512 -6.58465,-6.62772 -13.1759,-13.24885 -19.77056,-19.8666 -2.29555,-2.30571 -4.58761,-4.61484 -6.87934,-6.92434 -1.42206,-1.42889 -2.84424,-2.85768 -4.26654,-4.28633 -0.62886,-0.63559 -1.25772,-1.27119 -1.90563,-1.92604 -3.05756,-3.06525 -6.16701,-6.01105 -9.44343,-8.84222 -4.04245,-3.49388 -7.82555,-7.19703 -11.58747,-10.98882 -0.71008,-0.71154 -1.42016,-1.42308 -2.15176,-2.15619 -1.52774,-1.53151 -3.05432,-3.06418 -4.57984,-4.5979 -2.41998,-2.43285 -4.84317,-4.86248 -7.26718,-7.29132 -6.01705,-6.03036 -12.02864,-12.06617 -18.040402,-18.10181 -5.090239,-5.11002 -10.182559,-10.21796 -15.277618,-15.32318 -2.377185,-2.38362 -4.751317,-4.77026 -7.125336,-7.15704 -1.469659,-1.47329 -2.939459,-2.94645 -4.409424,-4.41943 -0.650624,-0.65579 -1.301248,-1.31158 -1.971588,-1.98725 -3.78775,-3.78818 -7.69905,-7.36426 -11.752457,-10.86597 -2.518314,-2.20958 -4.890926,-4.54441 -7.256424,-6.91607 -0.479093,-0.47895 -0.958186,-0.9579 -1.451797,-1.45136 -1.549706,-1.55039 -3.095861,-3.10427 -4.641953,-4.65826 -1.086938,-1.08881 -2.1741,-2.17739 -3.261474,-3.26576 -2.836358,-2.84015 -5.669697,-5.68328 -8.502381,-8.52709 -2.901087,-2.91139 -5.805072,-5.81988 -8.708801,-8.72863 -5.678592,-5.68926 -11.353993,-11.38169 -17.0273438,-17.07618 -2.7836185,1.27193 -4.8313559,2.58188 -6.9909706,4.74488 -0.8479612,0.84199 -0.8479612,0.84199 -1.713053,1.70098 -0.6109003,0.61673 -1.2218007,1.23346 -1.8512132,1.86887 -0.9851791,0.98262 -0.9851791,0.98262 -1.9902608,1.98508 -2.2034845,2.20019 -4.3997366,4.40746 -6.5961036,6.61474 -1.576495,1.57706 -3.153431,3.15368 -4.730774,4.72989 -4.285109,4.28454 -8.564014,8.57522 -12.841855,12.86701 -4.470085,4.48257 -8.945818,8.95949 -13.420963,13.43701 -7.511871,7.51739 -15.020238,15.03825 -22.52594,22.5618 -7.730728,7.74909 -15.463556,15.49607 -23.199218,23.24023 -0.715303,0.71609 -0.715303,0.71609 -1.445056,1.44665 -2.392335,2.39494 -4.78471,4.78985 -7.177107,7.18473 -19.845577,19.86631 -39.683827,39.73993 -59.517487,59.61813 0.40428,0.40169 0.80856,0.80337 1.22509,1.21722 1.84744,1.83707 3.6929,3.67612 5.53834,5.51521 0.63602,0.63186 1.27204,1.26372 1.92733,1.91473 3.71023,3.70065 7.25738,7.47004 10.64957,11.46612 3.50214,3.98126 7.3298,7.65882 11.09717,11.38672 0.82693,0.82243 1.65387,1.64485 2.50586,2.49219 2.01659,2.00493 4.03549,4.00748 6.05664,6.00781 -1.44189,3.29992 -3.23006,5.4783 -5.77197,8.0149 -0.77486,0.77793 -1.54972,1.55586 -2.34805,2.35737 -0.83954,0.83235 -1.67907,1.6647 -2.54404,2.52226 -0.86604,0.86559 -1.73208,1.73117 -2.62436,2.62298 -1.83525,1.83223 -3.67293,3.66202 -5.51285,5.48957 -2.79722,2.77908 -5.58647,5.56597 -8.37451,8.35425 -1.78729,1.78237 -3.57504,3.56429 -5.36328,5.3457 -0.82739,0.82628 -1.65477,1.65255 -2.50723,2.50387 -4.2556,4.22139 -8.58824,8.27724 -13.12983,12.18859 -2.73378,2.39898 -5.29793,4.94962 -7.85513,7.53411 -0.52138,0.5228 -1.04277,1.0456 -1.57995,1.58424 -1.63201,1.63751 -3.26046,3.2785 -4.8888,4.91966 -1.11956,1.12459 -2.23935,2.24894 -3.35937,3.37305 -2.71624,2.72715 -5.42931,5.45741 -8.14063,8.18945 -3.08187,-1.37213 -5.17493,-2.93379 -7.54004,-5.32885 -0.6746,-0.67799 -1.3492,-1.35597 -2.04425,-2.05449 -0.71984,-0.7333 -1.43968,-1.4666 -2.18133,-2.22213 -0.75223,-0.75742 -1.50446,-1.51485 -2.27948,-2.29524 -2.40643,-2.42423 -4.80609,-4.85502 -7.2049,-7.28679 -2.38533,-2.41309 -4.77215,-4.82466 -7.16205,-7.23323 -1.48547,-1.49757 -2.96827,-2.99781 -4.44787,-4.50119 -3.99171,-4.02964 -8.08045,-7.87017 -12.38689,-11.56251 -19.84884,-17.15855 -35.17941,-38.45689 -37.47755,-65.26288 -1.50776,-23.17357 5.63102,-43.71954 20.72436,-61.25269 3.94837,-4.20902 8.02596,-8.28011 12.11987,-12.34692 1.20531,-1.20474 2.41017,-2.40992 3.61463,-3.61551 3.2453,-3.24587 6.49669,-6.48556 9.74927,-9.72413 3.41388,-3.40129 6.82201,-6.80832 10.23079,-10.21473 6.44964,-6.44344 12.90435,-12.88177 19.36094,-19.31825 7.33466,-7.3123 14.66365,-14.63028 21.99215,-21.94875 12.52673,-12.50939 25.05765,-25.01457 37.59338,-37.51495 0.52935,-0.52787 1.05869,-1.05574 1.60408,-1.5996 1.40698,-1.40302 2.81402,-2.80597 4.22106,-4.20891 3.61769,-3.609654 7.23445,-7.220055 10.83022,-10.851554 0.91393,-0.922603 0.91393,-0.922603 1.84633,-1.863846 0.97798,-0.987401 0.97798,-0.987401 1.97571,-1.994751 7.15513,-7.220804 14.3207,-14.431161 21.492063,-21.635836 4.329315,-4.350141 8.654831,-8.703921 12.971803,-13.066312 4.191948,-4.23575 8.393898,-8.461346 12.602648,-12.680399 1.591308,-1.598629 3.179127,-3.200742 4.763164,-4.806576 C -48.782435,16.05618 -28.475734,1.5905365 0,0 Z"
     fill="#0056a8"
     id="path2"
     transform="translate(376.16797,107.87891)"
     style="display:inline" />
  <path
     d="m 0,0 c 1.1092183,0.94153766 2.2171138,1.8846338 3.3244629,2.8283691 0.6171034,0.5250161 1.2342068,1.0500321 1.8700104,1.5909577 3.4757522,3.0428951 6.6385237,6.3992552 9.8641207,9.7017672 2.11915,2.124211 4.3264,4.097372 6.604004,6.050293 4.391334,3.827828 8.546834,7.859371 12.677246,11.965332 0.766393,0.760693 1.532786,1.521386 2.322403,2.30513 1.610631,1.601245 3.21986,3.203902 4.827743,4.807907 2.430474,2.420776 4.871427,4.830646 7.312744,7.240478 C 68.15289,65.706823 82.7031,85.683164 83,114 c -0.124836,13.27945 -2.957093,25.41562 -8.75,37.3125 -0.298499,0.62117 -0.596997,1.24233 -0.904541,1.88232 -5.528085,10.74521 -14.367968,19.0785 -22.907959,27.43018 -1.516929,1.48895 -3.032187,2.97951 -4.544418,4.47324 -1.367931,1.35044 -2.740807,2.69586 -4.114029,4.04092 -2.085691,2.14707 -4.043205,4.30126 -5.989529,6.56807 -3.582151,4.10748 -7.343738,7.98984 -11.200962,11.83792 -0.712841,0.71511 -1.425683,1.43021 -2.160125,2.16699 -2.368645,2.37493 -4.740804,4.74632 -7.113007,7.11769 -1.7075,1.7105 -3.414796,3.4212 -5.121903,5.13208 -4.1443145,4.15222 -8.2909964,8.30205 -12.4389816,12.4506 -3.3747834,3.37526 -6.7487725,6.75131 -10.1222134,10.12791 -9.584702,9.5935 -19.171488,19.18491 -28.760965,28.77364 -0.515876,0.51583 -1.031752,1.03167 -1.563262,1.56314 -0.516513,0.51647 -1.033027,1.03294 -1.565192,1.56507 -8.367128,8.36672 -16.729257,16.73841 -25.089127,25.11239 -8.603783,8.61817 -17.211323,17.23259 -25.822738,25.84314 -4.826596,4.82626 -9.651668,9.65403 -14.472688,14.48587 -4.53602,4.54613 -9.07727,9.087 -13.62198,13.62446 -1.66129,1.66025 -3.3209,3.32219 -4.97863,4.98599 -20.74181,20.81279 -41.97266,38.5646 -72.89154,39.02541 -1.1521,-0.006 -2.3042,-0.0129 -3.49121,-0.0195 -1.21913,-0.006 -2.43826,-0.0129 -3.69434,-0.0195 -35.27556,-0.70681 -57.47823,-21.77958 -81.02963,-45.55819 -2.73435,-2.75714 -5.47789,-5.5051 -8.22052,-8.25401 -5.18077,-5.19516 -10.35427,-10.3975 -15.5247,-15.60295 -9.26384,-9.3261 -18.54014,-18.63981 -27.81919,-27.95078 -3.24732,-3.25906 -6.49143,-6.52128 -9.73277,-9.78629 -2.02013,-2.03404 -4.04232,-4.06603 -6.06495,-6.09758 -1.36943,-1.37682 -2.73623,-2.75626 -4.10293,-4.13579 -4.31324,-4.32859 -8.69348,-8.48673 -13.32801,-12.46877 -3.02455,-2.64712 -5.86585,-5.47026 -8.71367,-8.30482 -0.63366,-0.62709 -1.26732,-1.25418 -1.92018,-1.90027 -2.06845,-2.04894 -4.13304,-4.1017 -6.19677,-6.1554 -0.71207,-0.70799 -1.42415,-1.41599 -2.1578,-2.14545 -3.76521,-3.74446 -7.52722,-7.49211 -11.28678,-11.24224 -3.86019,-3.84912 -7.73191,-7.6864 -11.60634,-11.52118 -3.00004,-2.97377 -5.99105,-5.95651 -8.97978,-8.94166 -1.42263,-1.41779 -2.8486,-2.83224 -4.27812,-4.24309 -9.31019,-9.19605 -17.55131,-17.9445 -22.53102,-30.297 -0.3777,-0.91008 -0.75539,-1.82016 -1.14453,-2.75781 -6.05486,-18.09654 -4.13011,-37.72687 3.26953,-55.11719 4.17376,-7.79667 10.66829,-13.83741 16.82178,-20.08105 2.22183,-2.28522 4.35992,-4.63545 6.48755,-7.008061 C -417.8216,90.375118 -417.8216,90.375118 -413,87 c 3.99716,0.258929 5.96848,1.469339 8.75433,4.262139 0.71012,0.702154 1.42024,1.404307 2.15187,2.127738 0.76752,0.779168 1.53504,1.558336 2.32581,2.361115 0.82507,0.821648 1.65013,1.643297 2.5002,2.489844 2.28775,2.282294 4.56629,4.573354 6.84126,6.868374 2.45555,2.47281 4.92264,4.93407 7.38835,7.39674 4.27031,4.26821 8.53322,8.54368 12.79121,12.82416 6.15635,6.18885 12.32371,12.36664 18.49382,18.54177 10.01011,10.01887 20.01126,20.04664 30.00681,30.08002 9.71016,9.74687 19.42451,19.48954 29.14453,29.22657 0.59908,0.60012 1.19815,1.20024 1.81537,1.81855 3.00538,3.0106 6.01084,6.02111 9.01634,9.03159 24.9362,24.97767 49.85788,49.9698 74.7701,74.97139 4.61929,-3.86432 9.01258,-7.86789 13.26147,-12.13449 0.58908,-0.58751 1.17815,-1.17503 1.78508,-1.78035 1.9543,-1.95034 3.90505,-3.90421 5.85579,-5.85811 1.40817,-1.40681 2.81655,-2.81341 4.22513,-4.21982 3.81219,-3.80764 7.62123,-7.61843 11.42956,-11.42993 3.99373,-3.99627 7.98991,-7.99009 11.98569,-11.98431 6.70989,-6.70807 13.41768,-13.41825 20.12427,-20.12961 7.74217,-7.74761 15.48794,-15.49162 23.23559,-23.23376 6.66276,-6.65822 13.32356,-13.31839 19.982747,-19.98019 3.972403,-3.97396 7.945469,-7.94724 11.920307,-11.91877 3.738554,-3.73565 7.474634,-7.47377 11.208858,-11.21375 1.366871,-1.36819 2.734582,-2.73554 4.103218,-4.10196 9.060752,-9.00316 9.060752,-9.00316 17.580013,-18.51373 1.939551,-2.23585 4.12042,-4.14051 6.364777,-6.06372 C -39.727687,122.82811 -36.733422,119.35566 -33,115 -52.8,95.2 -52.8,95.2 -73,75 c 1.625638,-3.251276 2.506082,-4.755177 4.935944,-7.176453 0.600154,-0.602903 1.200308,-1.205807 1.818649,-1.82698 0.656712,-0.649522 1.313424,-1.299043 1.990036,-1.968247 1.039193,-1.039631 1.039193,-1.039631 2.09938,-2.100265 2.289476,-2.288083 4.585952,-4.569002 6.882554,-6.84993 1.589414,-1.585684 3.178387,-3.171811 4.766937,-4.758362 4.181176,-4.173542 8.368323,-8.341042 12.556732,-12.507324 4.273329,-4.252866 8.540998,-8.511403 12.809143,-12.76947 C -16.765954,16.689744 -8.3849656,8.3428895 0,0 Z"
     fill="#01abc3"
     transform="translate(840,524)"
     id="path3"
     style="display:inline" />
  <path
     d="m 0,0 c 7.1441328,5.9612728 13.62114,12.579211 20.148437,19.199219 1.250177,1.260236 2.500825,2.520005 3.751954,3.779297 3.025632,3.047384 6.044862,6.100975 9.060546,9.158203 -1.108652,3.325958 -1.919029,4.010533 -4.552734,6.18164 -4.430668,3.761758 -8.519869,7.779996 -12.603515,11.91211 -0.746569,0.750355 -1.493138,1.50071 -2.26233,2.273803 -2.362941,2.375046 -4.7225942,4.753315 -7.0814205,7.132447 -3.1116065,3.138392 -6.22663755,6.273327 -9.34375,9.40625 -1.0487933,1.061241 -1.0487933,1.061241 -2.1187744,2.143921 -3.1823529,3.197942 -6.3900031,6.297667 -9.8187261,9.231079 -5.000214,4.313785 -9.61725,9.005121 -14.26506,13.689895 -1.647028,1.659985 -3.297329,3.316657 -4.94844,4.97258 -3.504596,3.515936 -7.005225,7.035796 -10.505249,10.556276 -4.061191,4.08492 -8.124063,8.16815 -12.191208,12.24715 -1.612718,1.61912 -3.222355,3.24126 -4.831864,4.86357 -1.004528,1.00816 -2.0092,2.01619 -3.014038,3.02404 -0.864115,0.86936 -1.72823,1.73871 -2.61853,2.6344 -2.165726,2.07929 -4.348074,4.04961 -6.620392,6.00588 -4.635454,4.02378 -8.949799,8.33263 -13.270355,12.68956 -0.866024,0.86909 -1.732047,1.73818 -2.624314,2.6336 -1.866585,1.87371 -3.732252,3.74827 -5.596447,5.62435 -2.946791,2.96522 -5.89805,5.92597 -8.85007,8.88598 -8.38758,8.41163 -16.76907,16.8293 -25.14645,25.25109 -4.63953,4.66404 -9.28262,9.32451 -13.92959,13.98114 -2.93728,2.94383 -5.87,5.89212 -8.79945,8.84377 -2.24176,2.25619 -4.49001,4.50591 -6.73727,6.75663 -0.81246,0.82122 -1.62492,1.64244 -2.46199,2.48854 -0.74005,0.73875 -1.4801,1.47749 -2.24257,2.23862 -0.96613,0.97084 -0.96613,0.97084 -1.95177,1.96129 -1.61369,1.37039 -1.61369,1.37039 -3.61369,1.37039 5.00628,5.88254 10.27822,11.42171 15.74585,16.87524 0.84648,0.84824 1.69297,1.69648 2.56511,2.57042 2.29983,2.30346 4.60187,4.60468 6.9051,6.90473 2.42408,2.42153 4.8457,4.84552 7.26772,7.2691 4.0657,4.06752 8.1335,8.13294 12.2025,12.19716 4.68648,4.68104 9.36935,9.36567 14.05036,14.05219 4.0383,4.04285 8.07856,8.08373 12.120442,12.123 2.405629,2.40408 4.810602,4.80881 7.213791,7.21533 2.682207,2.68476 5.367623,5.36627 8.05388,8.04698 0.783106,0.78513 1.566211,1.57026 2.373047,2.37918 4.078572,4.06306 8.248208,7.9399 12.608163,11.69834 3.048459,2.68518 5.906338,5.54933 8.769035,8.4298 0.63515,0.63501 1.2703,1.27001 1.924697,1.92426 2.069151,2.06984 4.134751,4.14318 6.200303,6.21661 1.445662,1.44753 2.891548,2.89484 4.337646,4.34194 3.783291,3.78708 7.563567,7.57717 11.343201,11.3679 3.866269,3.87655 7.735413,7.75022 11.604309,11.62415 7.574414,7.5851 15.1456427,15.17337 22.7148435,22.76367 5.4961328,-4.64062 5.4961328,-4.64062 10.6687012,-9.63452 0.6272243,-0.64344 1.2544493,-1.28688 1.9006803,-1.94982 0.651284,-0.67213 1.302568,-1.34426 1.973587,-2.03676 1.416724,-1.44394 2.834059,-2.88728 4.251953,-4.33007 2.211412,-2.2549 4.418699,-4.5133 6.615967,-6.78199 2.136919,-2.20318 4.289132,-4.39039 6.44458,-6.57544 0.657357,-0.68629 1.314713,-1.37259 1.991989,-2.07969 0.617768,-0.62138 1.235537,-1.24275 1.872025,-1.88295 0.807721,-0.8289 0.807721,-0.8289 1.63176,-1.67455 1.648757,-1.05421 1.648757,-1.05421 3.550904,-0.79845 2.392392,0.84873 3.528766,1.80503 5.31227,3.59789 0.916977,0.91079 0.916977,0.91079 1.852478,1.83998 0.658872,0.66966 1.317744,1.33932 1.996582,2.02927 0.702841,0.7024 1.405682,1.40481 2.129822,2.12849 2.322956,2.32505 4.635104,4.66055 6.947326,6.99626 1.607887,1.61349 3.216436,3.22631 4.825623,4.83849 4.234951,4.24641 8.460815,8.50175 12.684876,12.75899 4.31138,4.34206 8.631259,8.67565 12.950439,13.00995 8.474503,8.50668 16.93944,17.02282 25.39844,25.54492 -3.55405,4.22162 -7.17584,8.30519 -11.0647,12.22583 -0.70151,0.70896 -0.70151,0.70896 -1.41719,1.43223 -1.525456,1.53989 -3.054614,3.07601 -4.584519,4.61147 -0.529899,0.53273 -1.059799,1.06545 -1.605757,1.61432 -2.806855,2.82178 -5.616519,5.64072 -8.428667,8.45721 -2.868572,2.87404 -5.727755,5.75722 -8.584763,8.64274 -2.229985,2.24883 -4.466867,4.49071 -6.705533,6.7309 -1.055207,1.05818 -2.107971,2.11881 -3.157978,3.18216 -9.427959,9.5391 -19.528969,19.09 -31.950896,24.54064 -0.712126,0.32363 -1.424252,0.64727 -2.157958,0.98071 -6.269867,2.74943 -12.581692,4.48038 -19.342041,5.58179 -1.067344,0.19336 -1.067344,0.19336 -2.15625,0.39062 -18.1942029,2.83353 -37.330108,-1.20464 -53.53125,-9.57812 -0.66419,-0.33782 -1.328379,-0.67563 -2.012696,-1.02368 -11.667271,-6.31384 -20.893376,-16.08523 -30.135254,-25.41846 -1.920172,-1.93854 -3.848335,-3.86884 -5.777832,-5.7981 -1.249171,-1.25408 -2.497885,-2.50862 -3.746093,-3.76367 -0.563704,-0.56481 -1.127407,-1.12963 -1.708191,-1.71156 -2.843132,-2.87644 -5.573809,-5.80871 -8.209529,-8.87695 -3.381509,-3.87808 -6.919291,-7.54696 -10.571613,-11.16886 -0.6523,-0.65103 -1.30459,-1.30206 -1.97665,-1.97282 -2.16367,-2.15833 -4.3309,-4.31305 -6.49813,-6.46781 -1.56138,-1.55618 -3.12252,-3.11261 -4.68342,-4.66926 -3.35164,-3.34173 -6.70473,-6.68198 -10.0589,-10.02117 -5.31231,-5.28916 -10.61967,-10.58327 -15.92606,-15.87837 -7.44771,-7.43124 -14.8961,-14.8618 -22.34627,-22.29057 -0.70787,-0.70585 -0.70787,-0.70585 -1.43005,-1.42595 -7.63981,-7.61765 -15.28346,-15.23143 -22.9281,-22.84423 -7.87295,-7.84045 -15.73995,-15.68685 -23.60225,-23.53798 -5.26405,-5.25599 -10.53458,-10.50537 -15.81007,-15.74987 -3.2929,-3.27679 -6.57938,-6.55996 -9.86414,-9.84491 -1.5138,-1.51139 -3.03014,-3.02024 -4.54934,-4.52621 -21.9961,-21.81266 -21.9961,-21.81266 -27.85291,-35.13457 -0.32033,-0.71672 -0.64067,-1.43344 -0.97071,-2.17188 -9.96356,-23.09275 -9.10484,-47.48892 0.0332,-70.70312 4.40078,-9.67954 10.37407,-17.93953 17.5963,-25.68289 0.51443,-0.55395 1.02886,-1.10789 1.55888,-1.67861 6.99796,-7.48264 14.25431,-14.71245 21.49155,-21.96223 1.60969,-1.61598 3.2192,-3.23214 4.82855,-4.84847 5.23519,-5.25601 10.47551,-10.50688 15.71612,-15.75749 1.81381,-1.81786 3.62759,-3.63575 5.44133,-5.45368 7.54318,-7.56 15.08744,-15.11891 22.6354,-22.67414 1.94701,-1.948919 3.89401,-3.897845 5.841,-5.846788 0.48378,-0.484264 0.96756,-0.968528 1.466,-1.467466 7.85228,-7.860598 15.69599,-15.729692 23.53621,-23.602322 8.08041,-8.113546 16.16855,-16.219311 24.26379,-24.318073 4.53286,-4.535205 9.06239,-9.073624 13.58379,-13.620253 4.2488,-4.272123 8.50708,-8.534568 12.77268,-12.789911 1.558238,-1.557749 3.113097,-3.11889 4.664193,-4.683754 C -69.465959,-13.148492 -32.67022,-25.856564 0,0 Z"
     fill="#a52e9a"
     transform="translate(379.03906,402.86328)"
     id="path4"
     style="display:inline" />
  <path
     d="m 0,0 c 2.4049219,0.91528225 3.6263724,1.9733398 5.4380255,3.7939911 0.6449743,0.6408504 1.2899487,1.2817007 1.9544677,1.9419708 0.6962751,0.7070609 1.3925501,1.4141217 2.1099244,2.1426087 0.7418554,0.7414174 1.4837114,1.4828347 2.2480464,2.2467194 2.452815,2.454906 4.89483,4.920272 7.336914,7.385849 1.697568,1.703162 3.395799,3.405663 5.094666,5.107529 4.471683,4.483142 8.934284,8.975221 13.395081,13.469192 4.552675,4.583352 9.113845,9.158233 13.674316,13.733826 8.948457,8.980641 17.887639,17.970457 26.820312,26.966797 -1.457852,3.350037 -3.301445,5.554641 -5.873489,8.134185 -0.808549,0.815635 -1.617099,1.631269 -2.450149,2.471619 -1.333138,1.329421 -1.333138,1.329421 -2.693207,2.6857 -0.945115,0.949464 -1.889812,1.899344 -2.834122,2.849609 -2.56614,2.579533 -5.138652,5.15262 -7.712761,7.724194 -2.155628,2.15456 -4.308267,4.31209 -6.460964,6.46957 -5.089433,5.10054 -10.184183,10.19572 -15.282192,15.28768 -5.233354,5.22734 -10.457526,10.46373 -15.677177,15.70475 -4.497502,4.51522 -9.000908,9.02451 -13.5088991,13.52926 -2.6848636,2.68306 -5.36753894,5.36822 -8.0444787,8.05919 -21.1793962,21.28075 -40.3459452,39.3004 -72.0250602,39.58424 -28.296144,-0.29943 -46.641474,-15.28594 -65.625004,-34.5625 -1.15382,-1.16388 -2.30811,-2.3273 -3.46289,-3.49023 -2.78867,-2.8104 -5.57093,-5.62699 -8.34961,-8.44727 4.39618,-6.28307 9.3882,-11.65833 14.83179,-17.04297 0.86745,-0.86614 1.73491,-1.73227 2.62865,-2.62466 1.87365,-1.86941 3.749,-3.73692 5.62762,-5.60132 2.97738,-2.95493 5.94749,-5.9171 8.91672,-8.88022 4.70153,-4.69018 9.40771,-9.37567 14.11598,-14.05908 8.422712,-8.378305 16.839846,-16.762207 25.25168,-25.151436 2.945842,-2.937494 5.894466,-5.872156 8.845453,-8.804481 2.275588,-2.262334 4.547952,-4.527904 6.820929,-6.792862 1.21046,-1.200353 1.21046,-1.200353 2.445373,-2.424957 4.155477,-4.14717 8.129667,-8.380489 11.959766,-12.829695 2.114254,-2.429853 4.342588,-4.731747 6.601697,-7.026842 0.453015,-0.461192 0.906029,-0.922384 1.372772,-1.397552 1.465714,-1.490071 2.935153,-2.97637 4.405792,-4.461579 0.507119,-0.512442 1.014237,-1.024884 1.536722,-1.552854 2.672834,-2.699318 5.349163,-5.395119 8.027976,-8.088503 2.211476,-2.224926 4.415411,-4.456945 6.613281,-6.695313 2.668436,-2.717567 5.348767,-5.422828 8.038309,-8.119504 1.01975,-1.026475 2.035232,-2.0572076 3.046322,-3.0922131 1.4068203,-1.438245 2.8308714,-2.8595754 4.2557008,-4.2799816 C -5.7807631,3.0494164 -4.9758091,2.2363754 -4.1464624,1.3986969 -1.9282465,-0.21151733 -1.9282465,-0.21151733 0,0 Z"
     fill="#0055a8"
     transform="translate(421.92825,446.21152)"
     id="path5"
     style="display:inline" />
  <path
     d="m 0,0 c 4.5938303,2.4354003 7.9007072,5.6117728 11.530365,9.2562103 0.642012,0.6367752 1.284024,1.2735507 1.94549,1.9296217 2.147432,2.132444 4.287669,4.271964 6.427954,6.41158 1.538894,1.531273 3.07819,3.062141 4.617858,4.592636 4.178058,4.156119 8.34953,8.318787 12.519173,12.483346 2.603282,2.59964 5.207858,5.197977 7.812878,7.795877 9.081664,9.057178 18.157601,18.120055 27.228802,27.187711 8.46738,8.463739 16.947799,16.914213 25.434239,25.358836 7.279351,7.244732 14.549131,14.498982 21.811541,21.760702 4.34067,4.33987 8.68527,8.67562 13.03969,13.00169 4.09034,4.0643 8.16869,8.14023 12.23796,12.22561 1.49895,1.50078 3.00222,2.99725 4.50998,4.48917 2.05024,2.02998 4.08463,4.07459 6.11561,6.12382 0.60649,0.59329 1.21298,1.18658 1.83785,1.79785 1.63131,1.66522 1.63131,1.66522 3.93061,4.58534 -0.43483,3.22563 -1.45226,4.82517 -3.74048,7.09692 -0.86209,0.86659 -0.86209,0.86659 -1.74159,1.75069 -0.93893,0.92041 -0.93893,0.92041 -1.89684,1.85942 -0.64549,0.64362 -1.29098,1.28724 -1.95604,1.95036 -1.36931,1.3626 -2.74222,2.72159 -4.11842,4.07723 -2.08376,2.05289 -4.15693,4.11598 -6.22827,6.1814 -1.33597,1.32679 -2.67255,2.65298 -4.00977,3.97851 -0.61178,0.60754 -1.22357,1.21507 -1.85389,1.84102 -3.06346,3.01414 -6.17753,5.92082 -9.43395,8.72612 -4.10394,3.55324 -7.88622,7.36012 -11.66137,11.25708 -1.41348,1.44068 -2.82756,2.88077 -4.24219,4.32031 -2.20041,2.24393 -4.39667,4.49138 -6.58301,6.74903 -2.13034,2.19658 -4.275954,4.3772 -6.424805,6.55566 -0.981329,1.02474 -0.981329,1.02474 -1.982483,2.07019 -0.61454,0.61815 -1.229081,1.23629 -1.862244,1.87317 -0.535464,0.54958 -1.070929,1.09917 -1.622619,1.6654 C 90,232 90,232 88.073555,231.71952 c -3.452196,-1.19791 -5.679207,-3.94541 -8.183907,-6.50516 -0.602208,-0.60338 -1.204417,-1.20676 -1.824874,-1.82842 -1.992182,-1.99938 -3.97363,-4.00906 -5.955399,-6.01875 -1.386863,-1.39501 -2.774468,-2.78927 -4.162781,-4.18283 -3.659603,-3.67674 -7.310562,-7.36194 -10.95935,-11.04941 -5.82355,-5.88265 -11.659612,-11.75288 -17.496514,-17.62228 -2.030011,-2.04387 -4.056093,-4.09157 -6.081611,-6.1399 -5.383322,-5.43216 -10.73197,-10.8169 -16.567078,-15.76919 -3.836896,-3.34019 -7.4093786,-6.9659 -11.0217285,-10.54499 -0.8528055,-0.84473 -1.705611,-1.68946 -2.584259,-2.5598 -1.7948347,-1.78107 -3.58817693,-3.56366 -5.3800965,-5.34767 -1.8125757,-1.80107 -3.6296044,-3.59767 -5.4511718,-5.38965 C -26.156979,120.50039 -42.485146,102.79189 -43.3125,75.4375 -43.244784,73.956217 -43.135339,72.476641 -43,71 c 0.09281,-1.12793 0.185625,-2.255859 0.28125,-3.417969 C -39.606475,38.224896 -20.008672,19.578947 0,0 Z"
     fill="#ea0e61"
     transform="translate(421,283)"
     id="path6"
     style="display:inline" />
  <path
     d="m 0,0 c 9.6128412,7.2951206 17.9636,16.219851 26.359863,24.84375 -1.280756,2.808354 -2.610494,4.85994 -4.791727,7.037823 -0.571775,0.575757 -1.143551,1.151515 -1.732653,1.74472 -0.628399,0.622573 -1.256798,1.245146 -1.904239,1.886585 -1.000992,1.003556 -1.000992,1.003556 -2.022206,2.027384 -2.241643,2.244943 -4.49037,4.482654 -6.7391161,6.72048 -1.6066154,1.606052 -3.2127908,3.212543 -4.8185578,4.819443 -4.36510938,4.365684 -8.736367,8.725166 -13.1087308,13.083583 -4.5666523,4.554167 -9.1276573,9.113981 -13.6892583,13.673207 -7.658621,7.653107 -15.320723,15.302709 -22.985504,22.949646 -7.894596,7.876239 -15.787087,15.754569 -23.676758,23.635739 -0.486355,0.48583 -0.972709,0.97166 -1.473802,1.47221 -2.439897,2.43729 -4.879752,4.87462 -7.319587,7.31197 -20.239552,20.21882 -40.486414,40.4303 -60.737864,60.63721 -4.22142,-1.93441 -7.10074,-4.83395 -10.3291,-8.10205 -0.62481,-0.62452 -1.24962,-1.24904 -1.89337,-1.89249 -2.06083,-2.06222 -4.11448,-4.13143 -6.16815,-6.20077 -1.42874,-1.43248 -2.85793,-2.86451 -4.28754,-4.29611 -3.75926,-3.76689 -7.51247,-7.53975 -11.26446,-11.31388 -3.8306,-3.85107 -7.66688,-7.69647 -11.50269,-11.54236 -7.5238,-7.54524 -15.04123,-15.0968 -22.55469,-22.65234 1.54048,-3.65139 3.73528,-5.99145 6.51888,-8.7863 0.46214,-0.46668 0.92429,-0.93335 1.40044,-1.41417 1.54795,-1.5606 3.10296,-3.11398 4.65808,-4.66745 1.11259,-1.11858 2.22477,-2.23757 3.33657,-3.35693 3.02263,-3.0403 6.05172,-6.07408 9.08256,-9.106187 1.89711,-1.898534 3.79279,-3.798486 5.68796,-5.698956 6.62346,-6.641973 13.25207,-13.278746 19.88558,-19.910681 6.16198,-6.160781 12.31276,-12.332585 18.45829,-18.509774 5.28982,-5.316088 10.58744,-10.624315 15.89104,-15.926647 3.16125,-3.16074 6.3194,-6.324425 9.46971,-9.496064 2.9714,-2.990961 5.95252,-5.971904 8.94091,-8.945879 1.08651,-1.084439 2.16971,-2.172203 3.24906,-3.263773 C -73.80321,-9.7746671 -33.350874,-23.511423 0,0 Z"
     fill="#01abc3"
     transform="translate(725.64014,400.15625)"
     id="path7"
     style="display:inline" />
  <path
     d="m 0,0 c 6.9469936,4.7900042 12.825155,10.508839 18.787109,16.448975 1.061712,1.050795 2.123801,2.101209 3.186234,3.151275 2.866657,2.836348 5.726723,5.679247 8.584627,8.524411 1.791689,1.783565 3.584401,3.566095 5.377379,5.348363 5.627196,5.594531 11.250005,11.193422 16.867004,16.798191 6.451088,6.436852 12.9167,12.858629 19.395294,19.267792 5.029266,4.977245 10.044778,9.968089 15.050416,14.969095 2.979679,2.976305 5.964639,5.94677 8.964263,8.902983 2.826188,2.785992 5.634694,5.588729 8.431404,8.404305 1.01934,1.02059 2.04451,2.03542 3.07637,3.04336 C 118.04793,114.961 125.21963,126.69068 128,141 c 0.22687,1.09312 0.45375,2.18625 0.6875,3.3125 1.83797,21.68808 -3.24658,38.83496 -16.6875,55.6875 -3.55084,4.11313 -7.35247,7.97416 -11.21582,11.79224 -1.695365,1.68114 -3.364795,3.38562 -5.03418,5.09253 -1.079279,1.08022 -2.159954,2.15906 -3.242188,3.23632 -0.494828,0.50809 -0.989657,1.01618 -1.499481,1.53966 C 89.590332,223.04077 89.590332,223.04077 87,225 c -3.646328,-0.29424 -5.408055,-2.03865 -7.919861,-4.56583 -0.768039,-0.76536 -1.536079,-1.53072 -2.327392,-2.31927 -0.833319,-0.84568 -1.666637,-1.69135 -2.525208,-2.56265 -0.885062,-0.88623 -1.770124,-1.77246 -2.682007,-2.68555 -1.92414,-1.92887 -3.845303,-3.86023 -5.761955,-5.7965 -3.036381,-3.06744 -6.08313,-6.12443 -9.131294,-9.18015 -4.826894,-4.84139 -9.64652,-9.68995 -14.463223,-14.54147 -8.607015,-8.66881 -17.226018,-17.32569 -25.848002,-25.9796 -3.021507,-3.03327 -6.039796,-6.06969 -9.0553596,-9.10887 -1.4298801,-1.44045 -2.8609108,-2.87975 -4.2924123,-4.31858 -1.7366536,-1.74575 -3.47145356,-3.49335 -5.2039184,-5.24326 -4.1948665,-4.2108 -8.4714897,-8.23802 -12.9771157,-12.11396 -2.643342,-2.31087 -5.105489,-4.75806 -7.585689,-7.24422 -0.777162,-0.77694 -0.777162,-0.77694 -1.570023,-1.56958 -1.679567,-1.68026 -3.355583,-3.364 -5.03154,-5.04785 -1.176619,-1.17849 -2.353462,-2.35676 -3.530518,-3.53481 -3.07309,-3.07688 -6.143164,-6.15675 -9.212585,-9.237288 -3.142384,-3.152678 -6.287658,-6.302469 -9.432678,-9.452515 C -57.703328,84.334827 -63.852686,78.168438 -70,72 c 1.285963,-2.823844 2.627076,-4.875684 4.822052,-7.062561 0.574912,-0.577661 1.149824,-1.155322 1.742157,-1.750488 0.942989,-0.932204 0.942989,-0.932204 1.905029,-1.88324 0.995303,-0.99574 0.995303,-0.99574 2.010712,-2.011597 2.19208,-2.190687 4.391156,-4.374208 6.590363,-6.557739 1.522153,-1.518423 3.043866,-3.037289 4.565155,-4.55658 4.003625,-3.995991 8.01322,-7.98594 12.024078,-11.97467 4.09236,-4.071896 8.179059,-8.149464 12.266235,-12.226563 C -16.055017,15.978805 -8.0294982,7.987419 0,0 Z"
     fill="#a52e9a"
     transform="translate(509,531)"
     id="path8"
     style="display:inline" />
</svg>
