<?xml version="1.0" encoding="UTF-8" standalone="no"?>
<!-- Uploaded to: SVG Repo, www.svgrepo.com, Generator: SVG Repo Mixer Tools -->

<svg
   version="1.1"
   id="_x35_"
   viewBox="0 0 445 512"
   xml:space="preserve"
   sodipodi:docname="pdf-file-svgrepo-com.svg"
   width="445"
   height="512"
   inkscape:version="1.4 (86a8ad7, 2024-10-11)"
   xmlns:inkscape="http://www.inkscape.org/namespaces/inkscape"
   xmlns:sodipodi="http://sodipodi.sourceforge.net/DTD/sodipodi-0.dtd"
   xmlns="http://www.w3.org/2000/svg"
   xmlns:svg="http://www.w3.org/2000/svg"><defs
   id="defs7" /><sodipodi:namedview
   id="namedview7"
   pagecolor="#ffffff"
   bordercolor="#000000"
   borderopacity="0.25"
   inkscape:showpageshadow="2"
   inkscape:pageopacity="0.0"
   inkscape:pagecheckerboard="0"
   inkscape:deskcolor="#d1d1d1"
   inkscape:zoom="1.1145218"
   inkscape:cx="132.34375"
   inkscape:cy="174.5143"
   inkscape:window-width="2560"
   inkscape:window-height="1009"
   inkscape:window-x="-8"
   inkscape:window-y="-8"
   inkscape:window-maximized="1"
   inkscape:current-layer="_x35_" />
<g
   id="g7"
   transform="translate(-33.198094)">
	<polygon
   style="fill:#b12a27"
   points="357.613,0.002 412.491,54.881 475.435,117.825 475.435,512 47.791,512 47.791,0.002 "
   id="polygon1" />
	<rect
   x="36.564999"
   y="34.294998"
   style="fill:#f2f2f2"
   width="205.097"
   height="91.767998"
   id="rect1" />
	<g
   id="g5">
		<g
   id="g3">
			<path
   style="fill:#b12a27"
   d="m 110.132,64.379 c -0.905,-2.186 -2.111,-4.146 -3.769,-5.804 -1.658,-1.658 -3.694,-3.015 -6.031,-3.92 -2.412,-0.98 -5.126,-1.432 -8.141,-1.432 h -22.54 v 58.195 H 81.034 V 89.481 h 11.157 c 3.015,0 5.729,-0.452 8.141,-1.432 2.337,-0.905 4.372,-2.261 6.031,-3.92 1.659,-1.658 2.865,-3.543 3.769,-5.804 0.829,-2.186 1.282,-4.523 1.282,-6.935 -0.001,-2.488 -0.453,-4.825 -1.282,-7.011 z M 97.844,77.118 c -1.508,1.432 -3.618,2.186 -6.181,2.186 H 81.034 V 63.323 h 10.629 c 2.563,0 4.674,0.754 6.181,2.261 1.432,1.432 2.186,3.392 2.186,5.804 0.001,2.338 -0.753,4.298 -2.186,5.73 z"
   id="path1" />
			<path
   style="fill:#b12a27"
   d="m 164.558,75.761 c -0.075,-2.035 -0.151,-3.844 -0.377,-5.503 -0.226,-1.659 -0.603,-3.166 -1.131,-4.598 -0.528,-1.357 -1.206,-2.714 -2.111,-3.92 -2.035,-2.94 -4.523,-5.126 -7.312,-6.483 -2.865,-1.357 -6.257,-2.035 -10.252,-2.035 h -20.956 v 58.195 h 20.956 c 3.995,0 7.387,-0.678 10.252,-2.035 2.789,-1.357 5.277,-3.543 7.312,-6.483 0.905,-1.206 1.583,-2.563 2.111,-3.92 0.528,-1.432 0.905,-2.94 1.131,-4.598 0.226,-1.658 0.301,-3.468 0.377,-5.503 0.075,-1.96 0.075,-4.146 0.075,-6.558 0,-2.412 0,-4.599 -0.075,-6.559 z M 153.175,88.2 c 0,1.734 -0.151,3.091 -0.302,4.297 -0.151,1.131 -0.377,2.186 -0.678,2.94 -0.301,0.829 -0.754,1.583 -1.281,2.261 -1.885,2.412 -4.749,3.543 -8.518,3.543 h -8.669 V 63.323 h 8.669 c 3.769,0 6.634,1.206 8.518,3.618 0.528,0.678 0.98,1.357 1.281,2.186 0.301,0.829 0.528,1.809 0.678,3.015 0.151,1.131 0.302,2.563 0.302,4.221 0.075,1.659 0.075,3.694 0.075,5.955 0.001,2.263 0.001,4.223 -0.075,5.882 z"
   id="path2" />
			<path
   style="fill:#b12a27"
   d="M 213.18,63.323 V 53.222 h -38.37 v 58.195 h 11.383 V 87.823 h 22.992 V 77.646 H 186.193 V 63.323 Z"
   id="path3" />
		</g>
		<g
   id="g4">
			<path
   style="fill:#b12a27"
   d="m 110.132,64.379 c -0.905,-2.186 -2.111,-4.146 -3.769,-5.804 -1.658,-1.658 -3.694,-3.015 -6.031,-3.92 -2.412,-0.98 -5.126,-1.432 -8.141,-1.432 h -22.54 v 58.195 H 81.034 V 89.481 h 11.157 c 3.015,0 5.729,-0.452 8.141,-1.432 2.337,-0.905 4.372,-2.261 6.031,-3.92 1.659,-1.658 2.865,-3.543 3.769,-5.804 0.829,-2.186 1.282,-4.523 1.282,-6.935 -0.001,-2.488 -0.453,-4.825 -1.282,-7.011 z M 97.844,77.118 c -1.508,1.432 -3.618,2.186 -6.181,2.186 H 81.034 V 63.323 h 10.629 c 2.563,0 4.674,0.754 6.181,2.261 1.432,1.432 2.186,3.392 2.186,5.804 0.001,2.338 -0.753,4.298 -2.186,5.73 z"
   id="path4" />
		</g>
	</g>
	<polygon
   style="opacity:0.08;fill:#040000"
   points="47.791,512 47.791,419.581 247.705,219.667 259.54,207.832 266.098,201.273 277.029,190.343 289.995,177.377 412.491,54.881 475.435,117.825 475.435,512 "
   id="polygon5" />
	<polygon
   style="fill:#771b1b"
   points="357.599,117.836 357.599,0 475.435,117.836 "
   id="polygon6" />
	<g
   id="g6">
		<path
   style="fill:#f2f2f2"
   d="m 414.376,370.658 c -2.488,-4.372 -5.88,-8.518 -10.101,-12.287 -3.467,-3.166 -7.538,-6.106 -12.137,-8.82 -18.544,-10.93 -45.003,-16.207 -80.961,-16.207 h -3.618 c -1.96,-1.809 -3.995,-3.618 -6.106,-5.503 -13.644,-12.287 -24.499,-25.63 -32.942,-40.48 16.584,-36.561 24.499,-69.126 23.519,-96.867 -0.151,-4.674 -0.829,-9.046 -2.035,-13.117 -1.809,-6.558 -4.824,-12.363 -9.046,-17.112 -0.075,-0.075 -0.075,-0.075 -0.151,-0.151 -6.709,-7.538 -16.056,-11.835 -25.555,-11.835 -9.574,0 -18.393,4.146 -24.801,11.76 -6.332,7.538 -9.724,17.866 -9.875,30.002 -0.226,18.544 1.281,36.108 4.448,52.315 0.301,1.282 0.528,2.563 0.829,3.844 3.166,14.7 7.84,28.645 13.87,41.611 -7.086,14.398 -14.247,26.836 -19.223,35.279 -3.769,6.408 -7.915,13.117 -12.212,19.826 -19.373,3.468 -35.807,7.689 -50.129,12.966 -19.373,7.011 -34.902,16.056 -46.059,26.836 -7.237,6.935 -12.137,14.323 -14.549,22.012 -2.563,7.915 -2.412,15.83 0.452,22.916 2.638,6.558 7.387,12.061 13.72,15.83 1.508,0.905 3.091,1.658 4.749,2.337 4.825,1.96 10.101,3.015 15.604,3.015 12.74,0 25.856,-5.503 36.937,-15.378 20.655,-18.469 41.988,-48.169 54.577,-66.94 10.327,-1.583 21.559,-2.94 34.224,-4.297 14.926,-1.508 28.118,-2.412 40.104,-2.865 3.694,3.317 7.237,6.483 10.629,9.498 18.846,16.81 33.168,28.947 46.134,37.465 0,0.075 0.075,0.075 0.151,0.075 5.126,3.392 10.026,6.181 14.926,8.443 5.503,2.563 11.081,3.92 16.81,3.92 7.237,0 14.021,-2.186 19.675,-6.181 5.729,-4.146 9.875,-10.101 11.76,-16.81 2.186,-8.064 0.905,-17.034 -3.618,-25.1 z M 247.705,219.667 c -1.055,-9.348 -1.508,-19.072 -1.357,-29.324 0.151,-9.724 3.694,-16.283 8.895,-16.283 3.92,0 8.066,3.543 9.95,10.327 0.528,2.035 0.905,4.372 0.98,7.01 0.151,3.166 0.075,6.483 -0.075,9.875 -0.452,9.574 -2.111,19.75 -4.975,30.681 -1.734,7.011 -3.995,14.323 -6.784,21.936 -3.166,-10.703 -5.428,-22.086 -6.634,-34.222 z M 121.967,418.073 c -1.282,-3.166 0.151,-9.272 7.991,-16.81 11.986,-11.458 30.756,-20.504 56.914,-27.364 -4.975,6.784 -9.875,12.966 -14.624,18.619 -7.237,8.744 -14.172,16.132 -20.429,21.71 -5.352,4.824 -11.232,7.84 -16.81,8.594 -0.98,0.151 -1.96,0.226 -2.94,0.226 -4.901,10e-4 -8.896,-1.959 -10.102,-4.975 z m 120.461,-80.131 0.528,-0.829 -0.829,0.151 c 0.151,-0.377 0.377,-0.754 0.603,-1.055 3.166,-5.352 7.161,-12.212 11.458,-20.127 l 0.377,0.829 0.98,-2.035 c 3.166,4.523 6.634,8.971 10.252,13.267 1.734,2.035 3.543,3.995 5.352,5.955 l -1.206,0.075 1.055,0.98 c -3.091,0.226 -6.332,0.528 -9.574,0.829 -2.035,0.226 -4.146,0.377 -6.257,0.603 -4.371,0.452 -8.668,0.905 -12.739,1.357 z m 126.869,47.038 c -8.971,-5.729 -18.996,-13.795 -31.359,-24.575 17.564,1.809 31.359,5.654 41.159,11.383 4.297,2.488 7.538,5.051 9.724,7.538 3.618,3.844 4.9,7.312 4.221,9.649 -0.603,2.337 -3.241,3.92 -6.483,3.92 -1.885,0 -3.844,-0.452 -5.88,-1.432 -3.468,-1.658 -7.086,-3.694 -10.93,-6.181 -0.151,0 -0.301,-0.151 -0.452,-0.302 z"
   id="path6" />
	</g>
</g>
</svg>
